<mxfile host="Electron" modified="2023-05-26T18:02:30.310Z" agent="Mozilla/5.0 (Macintosh; Intel Mac OS X 10_15_7) AppleWebKit/537.36 (KHTML, like Gecko) draw.io/21.2.8 Chrome/112.0.5615.165 Electron/24.2.0 Safari/537.36" etag="1ZPwICkYoi_-GSJDu8xX" version="21.2.8" type="device">
  <diagram name="Page-1" id="kSqFMThQmX7hzBJzF_eg">
    <mxGraphModel dx="933" dy="675" grid="1" gridSize="10" guides="1" tooltips="1" connect="1" arrows="1" fold="1" page="1" pageScale="1" pageWidth="827" pageHeight="1169" math="1" shadow="0">
      <root>
        <mxCell id="0" />
        <mxCell id="1" parent="0" />
        <mxCell id="I7PrfXjotNyLxc-h596V-30" value="" style="verticalLabelPosition=bottom;verticalAlign=top;html=1;shape=mxgraph.basic.arc;startAngle=0.6068894395787305;endAngle=0.863810378704208;rotation=0;strokeWidth=2;fillColor=#1ba1e2;fontColor=#ffffff;strokeColor=#006EAF;" vertex="1" parent="1">
          <mxGeometry x="110" y="174" width="205" height="205" as="geometry" />
        </mxCell>
        <mxCell id="I7PrfXjotNyLxc-h596V-20" value="" style="endArrow=open;html=1;rounded=0;exitX=0;exitY=1;exitDx=0;exitDy=0;endFill=0;strokeWidth=2;" edge="1" parent="1" source="I7PrfXjotNyLxc-h596V-15">
          <mxGeometry width="50" height="50" relative="1" as="geometry">
            <mxPoint x="190" y="160" as="sourcePoint" />
            <mxPoint x="120" y="390" as="targetPoint" />
          </mxGeometry>
        </mxCell>
        <mxCell id="I7PrfXjotNyLxc-h596V-5" value="" style="ellipse;whiteSpace=wrap;html=1;aspect=fixed;fillColor=none;dashed=1;" vertex="1" parent="1">
          <mxGeometry x="165" y="220" width="360" height="360" as="geometry" />
        </mxCell>
        <mxCell id="I7PrfXjotNyLxc-h596V-9" value="" style="group" vertex="1" connectable="0" parent="1">
          <mxGeometry x="300" y="340" width="104" height="105" as="geometry" />
        </mxCell>
        <mxCell id="I7PrfXjotNyLxc-h596V-1" value="" style="ellipse;whiteSpace=wrap;html=1;aspect=fixed;" vertex="1" parent="I7PrfXjotNyLxc-h596V-9">
          <mxGeometry y="15" width="40" height="40" as="geometry" />
        </mxCell>
        <mxCell id="I7PrfXjotNyLxc-h596V-2" value="" style="ellipse;whiteSpace=wrap;html=1;aspect=fixed;" vertex="1" parent="I7PrfXjotNyLxc-h596V-9">
          <mxGeometry x="50" y="15" width="40" height="40" as="geometry" />
        </mxCell>
        <mxCell id="I7PrfXjotNyLxc-h596V-3" value="" style="ellipse;whiteSpace=wrap;html=1;aspect=fixed;" vertex="1" parent="I7PrfXjotNyLxc-h596V-9">
          <mxGeometry y="65" width="40" height="40" as="geometry" />
        </mxCell>
        <mxCell id="I7PrfXjotNyLxc-h596V-4" value="" style="ellipse;whiteSpace=wrap;html=1;aspect=fixed;" vertex="1" parent="I7PrfXjotNyLxc-h596V-9">
          <mxGeometry x="50" y="65" width="40" height="40" as="geometry" />
        </mxCell>
        <mxCell id="I7PrfXjotNyLxc-h596V-8" value="" style="group;movable=1;resizable=1;rotatable=1;deletable=1;editable=1;locked=0;connectable=1;" vertex="1" connectable="0" parent="I7PrfXjotNyLxc-h596V-9">
          <mxGeometry x="44" width="60" height="60" as="geometry" />
        </mxCell>
        <mxCell id="I7PrfXjotNyLxc-h596V-19" value="" style="endArrow=none;html=1;rounded=0;strokeWidth=2;" edge="1" parent="I7PrfXjotNyLxc-h596V-8">
          <mxGeometry width="50" height="50" relative="1" as="geometry">
            <mxPoint y="60" as="sourcePoint" />
            <mxPoint x="246" y="60" as="targetPoint" />
          </mxGeometry>
        </mxCell>
        <mxCell id="I7PrfXjotNyLxc-h596V-6" value="" style="endArrow=classic;html=1;rounded=0;fillColor=#e51400;strokeColor=#B20000;strokeWidth=3;movable=1;resizable=1;rotatable=1;deletable=1;editable=1;locked=0;connectable=1;" edge="1" parent="I7PrfXjotNyLxc-h596V-8">
          <mxGeometry width="50" height="50" relative="1" as="geometry">
            <mxPoint y="60" as="sourcePoint" />
            <mxPoint x="60" y="60" as="targetPoint" />
          </mxGeometry>
        </mxCell>
        <mxCell id="I7PrfXjotNyLxc-h596V-7" value="" style="endArrow=classic;html=1;rounded=0;fillColor=#60a917;strokeColor=#2D7600;strokeWidth=3;movable=1;resizable=1;rotatable=1;deletable=1;editable=1;locked=0;connectable=1;" edge="1" parent="I7PrfXjotNyLxc-h596V-8">
          <mxGeometry width="50" height="50" relative="1" as="geometry">
            <mxPoint y="60" as="sourcePoint" />
            <mxPoint as="targetPoint" />
          </mxGeometry>
        </mxCell>
        <mxCell id="I7PrfXjotNyLxc-h596V-24" value="" style="endArrow=none;html=1;rounded=0;strokeWidth=2;" edge="1" parent="I7PrfXjotNyLxc-h596V-8">
          <mxGeometry width="50" height="50" relative="1" as="geometry">
            <mxPoint y="60" as="sourcePoint" />
            <mxPoint x="-234" y="-170" as="targetPoint" />
          </mxGeometry>
        </mxCell>
        <mxCell id="I7PrfXjotNyLxc-h596V-10" value="" style="group;rotation=-140;movable=1;resizable=1;rotatable=1;deletable=1;editable=1;locked=0;connectable=1;" vertex="1" connectable="0" parent="1">
          <mxGeometry x="154" y="224" width="104" height="105" as="geometry" />
        </mxCell>
        <mxCell id="I7PrfXjotNyLxc-h596V-11" value="" style="ellipse;whiteSpace=wrap;html=1;aspect=fixed;rotation=-140;" vertex="1" parent="I7PrfXjotNyLxc-h596V-10">
          <mxGeometry x="46" y="66" width="40" height="40" as="geometry" />
        </mxCell>
        <mxCell id="I7PrfXjotNyLxc-h596V-12" value="" style="ellipse;whiteSpace=wrap;html=1;aspect=fixed;rotation=-140;" vertex="1" parent="I7PrfXjotNyLxc-h596V-10">
          <mxGeometry x="8" y="35" width="40" height="40" as="geometry" />
        </mxCell>
        <mxCell id="I7PrfXjotNyLxc-h596V-13" value="" style="ellipse;whiteSpace=wrap;html=1;aspect=fixed;rotation=-140;" vertex="1" parent="I7PrfXjotNyLxc-h596V-10">
          <mxGeometry x="77" y="29" width="40" height="40" as="geometry" />
        </mxCell>
        <mxCell id="I7PrfXjotNyLxc-h596V-14" value="" style="ellipse;whiteSpace=wrap;html=1;aspect=fixed;rotation=-140;" vertex="1" parent="I7PrfXjotNyLxc-h596V-10">
          <mxGeometry x="39" y="-4" width="40" height="40" as="geometry" />
        </mxCell>
        <mxCell id="I7PrfXjotNyLxc-h596V-15" value="" style="group;movable=1;resizable=1;rotatable=1;deletable=1;editable=1;locked=0;connectable=1;rotation=-140;" vertex="1" connectable="0" parent="I7PrfXjotNyLxc-h596V-10">
          <mxGeometry x="-10" y="26" width="60" height="60" as="geometry" />
        </mxCell>
        <mxCell id="I7PrfXjotNyLxc-h596V-16" value="" style="endArrow=classic;html=1;rounded=0;fillColor=#e51400;strokeColor=#B20000;strokeWidth=3;movable=1;resizable=1;rotatable=1;deletable=1;editable=1;locked=0;connectable=1;" edge="1" parent="I7PrfXjotNyLxc-h596V-15">
          <mxGeometry width="50" height="50" relative="1" as="geometry">
            <mxPoint x="71" y="26" as="sourcePoint" />
            <mxPoint x="-34" y="-60" as="targetPoint" />
          </mxGeometry>
        </mxCell>
        <mxCell id="I7PrfXjotNyLxc-h596V-17" value="" style="endArrow=classic;html=1;rounded=0;fillColor=#60a917;strokeColor=#2D7600;strokeWidth=3;movable=1;resizable=1;rotatable=1;deletable=1;editable=1;locked=0;connectable=1;" edge="1" parent="I7PrfXjotNyLxc-h596V-15">
          <mxGeometry width="50" height="50" relative="1" as="geometry">
            <mxPoint x="71" y="26" as="sourcePoint" />
            <mxPoint x="34" y="71" as="targetPoint" />
          </mxGeometry>
        </mxCell>
        <mxCell id="I7PrfXjotNyLxc-h596V-21" value="$$\mathbf{\vec v}$$" style="text;html=1;strokeColor=none;fillColor=none;align=center;verticalAlign=middle;whiteSpace=wrap;rounded=0;fontSize=17;" vertex="1" parent="1">
          <mxGeometry x="110" y="340" width="20" height="20" as="geometry" />
        </mxCell>
        <mxCell id="I7PrfXjotNyLxc-h596V-22" value="" style="endArrow=classic;html=1;rounded=0;exitX=0;exitY=1;exitDx=0;exitDy=0;entryX=0;entryY=1;entryDx=0;entryDy=0;" edge="1" parent="1" source="I7PrfXjotNyLxc-h596V-8" target="I7PrfXjotNyLxc-h596V-5">
          <mxGeometry width="50" height="50" relative="1" as="geometry">
            <mxPoint x="220" y="350" as="sourcePoint" />
            <mxPoint x="270" y="300" as="targetPoint" />
          </mxGeometry>
        </mxCell>
        <mxCell id="I7PrfXjotNyLxc-h596V-23" value="$$r$$" style="text;html=1;strokeColor=none;fillColor=none;align=center;verticalAlign=middle;whiteSpace=wrap;rounded=0;fontSize=17;" vertex="1" parent="1">
          <mxGeometry x="230" y="470" width="20" height="20" as="geometry" />
        </mxCell>
        <mxCell id="I7PrfXjotNyLxc-h596V-25" value="" style="verticalLabelPosition=bottom;verticalAlign=top;html=1;shape=mxgraph.basic.arc;startAngle=0.870320321339177;endAngle=0.25;rotation=0;strokeWidth=2;fillColor=#1ba1e2;fontColor=#ffffff;strokeColor=#006EAF;" vertex="1" parent="1">
          <mxGeometry x="242.5" y="297.5" width="205" height="205" as="geometry" />
        </mxCell>
        <mxCell id="I7PrfXjotNyLxc-h596V-26" value="" style="endArrow=classic;html=1;rounded=0;fillColor=#1ba1e2;strokeColor=#006EAF;strokeWidth=2;exitX=0.174;exitY=0.121;exitDx=0;exitDy=0;exitPerimeter=0;" edge="1" parent="1" source="I7PrfXjotNyLxc-h596V-25">
          <mxGeometry width="50" height="50" relative="1" as="geometry">
            <mxPoint x="230" y="460" as="sourcePoint" />
            <mxPoint x="270" y="330" as="targetPoint" />
          </mxGeometry>
        </mxCell>
        <mxCell id="I7PrfXjotNyLxc-h596V-28" value="" style="endArrow=classic;html=1;rounded=0;exitX=0.998;exitY=0.477;exitDx=0;exitDy=0;exitPerimeter=0;fillColor=#1ba1e2;strokeColor=#006EAF;strokeWidth=2;entryX=1;entryY=0.499;entryDx=0;entryDy=0;entryPerimeter=0;" edge="1" parent="1" source="I7PrfXjotNyLxc-h596V-25" target="I7PrfXjotNyLxc-h596V-25">
          <mxGeometry width="50" height="50" relative="1" as="geometry">
            <mxPoint x="430" y="440" as="sourcePoint" />
            <mxPoint x="447" y="400" as="targetPoint" />
          </mxGeometry>
        </mxCell>
        <mxCell id="I7PrfXjotNyLxc-h596V-29" value="$$\varphi$$" style="text;html=1;strokeColor=none;fillColor=none;align=center;verticalAlign=middle;whiteSpace=wrap;rounded=0;fontSize=22;fontColor=#006EAF;" vertex="1" parent="1">
          <mxGeometry x="354" y="267.5" width="60" height="30" as="geometry" />
        </mxCell>
        <mxCell id="I7PrfXjotNyLxc-h596V-31" value="" style="endArrow=classic;html=1;rounded=0;fillColor=#1ba1e2;strokeColor=#006EAF;strokeWidth=2;exitX=0.165;exitY=0.867;exitDx=0;exitDy=0;exitPerimeter=0;entryX=0.188;entryY=0.891;entryDx=0;entryDy=0;entryPerimeter=0;" edge="1" parent="1" source="I7PrfXjotNyLxc-h596V-30" target="I7PrfXjotNyLxc-h596V-30">
          <mxGeometry width="50" height="50" relative="1" as="geometry">
            <mxPoint x="288" y="332" as="sourcePoint" />
            <mxPoint x="280" y="340" as="targetPoint" />
          </mxGeometry>
        </mxCell>
        <mxCell id="I7PrfXjotNyLxc-h596V-32" value="" style="endArrow=classic;html=1;rounded=0;fillColor=#1ba1e2;strokeColor=#006EAF;strokeWidth=2;exitX=0.096;exitY=0.208;exitDx=0;exitDy=0;exitPerimeter=0;entryX=0.122;entryY=0.173;entryDx=0;entryDy=0;entryPerimeter=0;" edge="1" parent="1" source="I7PrfXjotNyLxc-h596V-30" target="I7PrfXjotNyLxc-h596V-30">
          <mxGeometry width="50" height="50" relative="1" as="geometry">
            <mxPoint x="154" y="362" as="sourcePoint" />
            <mxPoint x="159" y="366" as="targetPoint" />
          </mxGeometry>
        </mxCell>
        <mxCell id="I7PrfXjotNyLxc-h596V-33" value="$$\theta$$" style="text;html=1;strokeColor=none;fillColor=none;align=center;verticalAlign=middle;whiteSpace=wrap;rounded=0;fontSize=22;fontColor=#006EAF;" vertex="1" parent="1">
          <mxGeometry x="60" y="261.5" width="60" height="30" as="geometry" />
        </mxCell>
      </root>
    </mxGraphModel>
  </diagram>
</mxfile>
